  0
SECTION
  2
BLOCKS
  0
ENDSEC
  0
SECTION
  2
ENTITIES
  0
LINE
  8
0
 10
250
 20
708.6
 11
-9.15527e-05
 21
708.6
  0
LINE
  8
0
 10
-9.15527e-05
 20
708.6
 11
-9.15527e-05
 21
583.6
  0
LINE
  8
0
 10
-9.15527e-05
 20
583.6
 11
250
 21
583.6
  0
LINE
  8
0
 10
250
 20
583.6
 11
250
 21
708.6
  0
LINE
  8
0
 10
211.4
 20
674.244
 11
211.4
 21
707.6
  0
LINE
  8
0
 10
211.4
 20
707.6
 11
232.4
 21
707.6
  0
LINE
  8
0
 10
232.4
 20
707.6
 11
232.4
 21
674.244
  0
LINE
  8
0
 10
232.4
 20
674.244
 11
211.4
 21
674.244
  0
LINE
  8
0
 10
188.6
 20
674.244
 11
188.6
 21
707.6
  0
LINE
  8
0
 10
188.6
 20
707.6
 11
209.6
 21
707.6
  0
LINE
  8
0
 10
209.6
 20
707.6
 11
209.6
 21
674.244
  0
LINE
  8
0
 10
209.6
 20
674.244
 11
188.6
 21
674.244
  0
LINE
  8
0
 10
94.7998
 20
633.6
 11
94.7998
 21
707.6
  0
LINE
  8
0
 10
94.7998
 20
707.6
 11
186.8
 21
707.6
  0
LINE
  8
0
 10
186.8
 20
707.6
 11
186.8
 21
633.6
  0
LINE
  8
0
 10
186.8
 20
633.6
 11
94.7998
 21
633.6
  0
LINE
  8
0
 10
177.244
 20
696.65
 11
177.734
 21
696.831
  0
LINE
  8
0
 10
177.734
 20
696.831
 11
178.16
 21
697.133
  0
LINE
  8
0
 10
178.16
 20
697.133
 11
178.493
 21
697.535
  0
LINE
  8
0
 10
178.493
 20
697.535
 11
178.711
 21
698.01
  0
LINE
  8
0
 10
178.711
 20
698.01
 11
178.798
 21
698.524
  0
LINE
  8
0
 10
178.798
 20
698.524
 11
178.75
 21
699.044
  0
LINE
  8
0
 10
178.75
 20
699.044
 11
178.568
 21
699.534
  0
LINE
  8
0
 10
178.568
 20
699.534
 11
178.266
 21
699.96
  0
LINE
  8
0
 10
178.266
 20
699.96
 11
177.865
 21
700.293
  0
LINE
  8
0
 10
177.865
 20
700.293
 11
177.39
 21
700.511
  0
LINE
  8
0
 10
177.39
 20
700.511
 11
176.876
 21
700.599
  0
LINE
  8
0
 10
176.876
 20
700.599
 11
176.356
 21
700.55
  0
LINE
  8
0
 10
176.356
 20
700.55
 11
175.866
 21
700.369
  0
LINE
  8
0
 10
175.866
 20
700.369
 11
175.44
 21
700.067
  0
LINE
  8
0
 10
175.44
 20
700.067
 11
175.107
 21
699.665
  0
LINE
  8
0
 10
175.107
 20
699.665
 11
174.889
 21
699.19
  0
LINE
  8
0
 10
174.889
 20
699.19
 11
174.801
 21
698.676
  0
LINE
  8
0
 10
174.801
 20
698.676
 11
174.85
 21
698.156
  0
LINE
  8
0
 10
174.85
 20
698.156
 11
175.031
 21
697.666
  0
LINE
  8
0
 10
175.031
 20
697.666
 11
175.333
 21
697.24
  0
LINE
  8
0
 10
175.333
 20
697.24
 11
175.735
 21
696.907
  0
LINE
  8
0
 10
175.735
 20
696.907
 11
176.209
 21
696.689
  0
LINE
  8
0
 10
176.209
 20
696.689
 11
176.724
 21
696.601
  0
LINE
  8
0
 10
176.724
 20
696.601
 11
177.244
 21
696.65
  0
LINE
  8
0
 10
105.191
 20
696.639
 11
105.686
 21
696.807
  0
LINE
  8
0
 10
105.686
 20
696.807
 11
106.12
 21
697.097
  0
LINE
  8
0
 10
106.12
 20
697.097
 11
106.464
 21
697.49
  0
LINE
  8
0
 10
106.464
 20
697.49
 11
106.694
 21
697.958
  0
LINE
  8
0
 10
106.694
 20
697.958
 11
106.796
 21
698.471
  0
LINE
  8
0
 10
106.796
 20
698.471
 11
106.761
 21
698.992
  0
LINE
  8
0
 10
106.761
 20
698.992
 11
106.593
 21
699.486
  0
LINE
  8
0
 10
106.593
 20
699.486
 11
106.303
 21
699.92
  0
LINE
  8
0
 10
106.303
 20
699.92
 11
105.91
 21
700.264
  0
LINE
  8
0
 10
105.91
 20
700.264
 11
105.441
 21
700.494
  0
LINE
  8
0
 10
105.441
 20
700.494
 11
104.929
 21
700.596
  0
LINE
  8
0
 10
104.929
 20
700.596
 11
104.408
 21
700.561
  0
LINE
  8
0
 10
104.408
 20
700.561
 11
103.914
 21
700.393
  0
LINE
  8
0
 10
103.914
 20
700.393
 11
103.48
 21
700.103
  0
LINE
  8
0
 10
103.48
 20
700.103
 11
103.136
 21
699.71
  0
LINE
  8
0
 10
103.136
 20
699.71
 11
102.906
 21
699.242
  0
LINE
  8
0
 10
102.906
 20
699.242
 11
102.804
 21
698.729
  0
LINE
  8
0
 10
102.804
 20
698.729
 11
102.839
 21
698.208
  0
LINE
  8
0
 10
102.839
 20
698.208
 11
103.007
 21
697.714
  0
LINE
  8
0
 10
103.007
 20
697.714
 11
103.297
 21
697.28
  0
LINE
  8
0
 10
103.297
 20
697.28
 11
103.69
 21
696.936
  0
LINE
  8
0
 10
103.69
 20
696.936
 11
104.158
 21
696.706
  0
LINE
  8
0
 10
104.158
 20
696.706
 11
104.67
 21
696.604
  0
LINE
  8
0
 10
104.67
 20
696.604
 11
105.191
 21
696.639
  0
LINE
  8
0
 10
0.999893
 20
633.6
 11
0.999893
 21
707.6
  0
LINE
  8
0
 10
0.999893
 20
707.6
 11
92.9999
 21
707.6
  0
LINE
  8
0
 10
92.9999
 20
707.6
 11
92.9999
 21
633.6
  0
LINE
  8
0
 10
92.9999
 20
633.6
 11
0.999893
 21
633.6
  0
LINE
  8
0
 10
83.444
 20
696.65
 11
83.9336
 21
696.831
  0
LINE
  8
0
 10
83.9336
 20
696.831
 11
84.3595
 21
697.133
  0
LINE
  8
0
 10
84.3595
 20
697.133
 11
84.6928
 21
697.535
  0
LINE
  8
0
 10
84.6928
 20
697.535
 11
84.9107
 21
698.01
  0
LINE
  8
0
 10
84.9107
 20
698.01
 11
84.9984
 21
698.524
  0
LINE
  8
0
 10
84.9984
 20
698.524
 11
84.9498
 21
699.044
  0
LINE
  8
0
 10
84.9498
 20
699.044
 11
84.7684
 21
699.534
  0
LINE
  8
0
 10
84.7684
 20
699.534
 11
84.4666
 21
699.96
  0
LINE
  8
0
 10
84.4666
 20
699.96
 11
84.0646
 21
700.293
  0
LINE
  8
0
 10
84.0646
 20
700.293
 11
83.5902
 21
700.511
  0
LINE
  8
0
 10
83.5902
 20
700.511
 11
83.0755
 21
700.599
  0
LINE
  8
0
 10
83.0755
 20
700.599
 11
82.5557
 21
700.55
  0
LINE
  8
0
 10
82.5557
 20
700.55
 11
82.0661
 21
700.369
  0
LINE
  8
0
 10
82.0661
 20
700.369
 11
81.6402
 21
700.067
  0
LINE
  8
0
 10
81.6402
 20
700.067
 11
81.3069
 21
699.665
  0
LINE
  8
0
 10
81.3069
 20
699.665
 11
81.089
 21
699.19
  0
LINE
  8
0
 10
81.089
 20
699.19
 11
81.0012
 21
698.676
  0
LINE
  8
0
 10
81.0012
 20
698.676
 11
81.0498
 21
698.156
  0
LINE
  8
0
 10
81.0498
 20
698.156
 11
81.2312
 21
697.666
  0
LINE
  8
0
 10
81.2312
 20
697.666
 11
81.5331
 21
697.24
  0
LINE
  8
0
 10
81.5331
 20
697.24
 11
81.9351
 21
696.907
  0
LINE
  8
0
 10
81.9351
 20
696.907
 11
82.4094
 21
696.689
  0
LINE
  8
0
 10
82.4094
 20
696.689
 11
82.9242
 21
696.601
  0
LINE
  8
0
 10
82.9242
 20
696.601
 11
83.444
 21
696.65
  0
LINE
  8
0
 10
11.3914
 20
696.639
 11
11.8856
 21
696.807
  0
LINE
  8
0
 10
11.8856
 20
696.807
 11
12.3196
 21
697.097
  0
LINE
  8
0
 10
12.3196
 20
697.097
 11
12.6636
 21
697.49
  0
LINE
  8
0
 10
12.6636
 20
697.49
 11
12.8942
 21
697.958
  0
LINE
  8
0
 10
12.8942
 20
697.958
 11
12.9956
 21
698.471
  0
LINE
  8
0
 10
12.9956
 20
698.471
 11
12.9611
 21
698.992
  0
LINE
  8
0
 10
12.9611
 20
698.992
 11
12.793
 21
699.486
  0
LINE
  8
0
 10
12.793
 20
699.486
 11
12.5026
 21
699.92
  0
LINE
  8
0
 10
12.5026
 20
699.92
 11
12.1099
 21
700.264
  0
LINE
  8
0
 10
12.1099
 20
700.264
 11
11.6414
 21
700.494
  0
LINE
  8
0
 10
11.6414
 20
700.494
 11
11.1293
 21
700.596
  0
LINE
  8
0
 10
11.1293
 20
700.596
 11
10.6083
 21
700.561
  0
LINE
  8
0
 10
10.6083
 20
700.561
 11
10.114
 21
700.393
  0
LINE
  8
0
 10
10.114
 20
700.393
 11
9.68007
 21
700.103
  0
LINE
  8
0
 10
9.68007
 20
700.103
 11
9.33607
 21
699.71
  0
LINE
  8
0
 10
9.33607
 20
699.71
 11
9.10548
 21
699.242
  0
LINE
  8
0
 10
9.10548
 20
699.242
 11
9.00404
 21
698.729
  0
LINE
  8
0
 10
9.00404
 20
698.729
 11
9.03859
 21
698.208
  0
LINE
  8
0
 10
9.03859
 20
698.208
 11
9.20668
 21
697.714
  0
LINE
  8
0
 10
9.20668
 20
697.714
 11
9.49709
 21
697.28
  0
LINE
  8
0
 10
9.49709
 20
697.28
 11
9.88979
 21
696.936
  0
LINE
  8
0
 10
9.88979
 20
696.936
 11
10.3583
 21
696.706
  0
LINE
  8
0
 10
10.3583
 20
696.706
 11
10.8704
 21
696.604
  0
LINE
  8
0
 10
10.8704
 20
696.604
 11
11.3914
 21
696.639
  0
LINE
  8
0
 10
211.4
 20
606.489
 11
211.4
 21
672.444
  0
LINE
  8
0
 10
211.4
 20
672.444
 11
232.4
 21
672.444
  0
LINE
  8
0
 10
232.4
 20
672.444
 11
232.4
 21
606.489
  0
LINE
  8
0
 10
232.4
 20
606.489
 11
211.4
 21
606.489
  0
LINE
  8
0
 10
188.6
 20
606.489
 11
188.6
 21
672.444
  0
LINE
  8
0
 10
188.6
 20
672.444
 11
209.6
 21
672.444
  0
LINE
  8
0
 10
209.6
 20
672.444
 11
209.6
 21
606.489
  0
LINE
  8
0
 10
209.6
 20
606.489
 11
188.6
 21
606.489
  0
LINE
  8
0
 10
2.67503
 20
610.8
 11
2.67503
 21
631.8
  0
LINE
  8
0
 10
2.67503
 20
631.8
 11
186.8
 21
631.8
  0
LINE
  8
0
 10
186.8
 20
631.8
 11
186.8
 21
610.8
  0
LINE
  8
0
 10
186.8
 20
610.8
 11
2.67503
 21
610.8
  0
LINE
  8
0
 10
13.7998
 20
592
 11
13.7998
 21
609
  0
LINE
  8
0
 10
13.7998
 20
609
 11
186.8
 21
609
  0
LINE
  8
0
 10
186.8
 20
609
 11
186.8
 21
592
  0
LINE
  8
0
 10
186.8
 20
592
 11
13.7998
 21
592
  0
LINE
  8
0
 10
0.999893
 20
587.2
 11
0.999893
 21
590.2
  0
LINE
  8
0
 10
0.999893
 20
590.2
 11
204
 21
590.2
  0
LINE
  8
0
 10
204
 20
590.2
 11
204
 21
587.2
  0
LINE
  8
0
 10
204
 20
587.2
 11
0.999893
 21
587.2
  0
LINE
  8
0
 10
575
 20
708.6
 11
325
 21
708.6
  0
LINE
  8
0
 10
325
 20
708.6
 11
325
 21
583.6
  0
LINE
  8
0
 10
325
 20
583.6
 11
575
 21
583.6
  0
LINE
  8
0
 10
575
 20
583.6
 11
575
 21
708.6
  0
LINE
  8
0
 10
526.6
 20
680.6
 11
526.6
 21
707.6
  0
LINE
  8
0
 10
526.6
 20
707.6
 11
573.763
 21
707.6
  0
LINE
  8
0
 10
573.763
 20
707.6
 11
573.763
 21
680.6
  0
LINE
  8
0
 10
573.763
 20
680.6
 11
526.6
 21
680.6
  0
LINE
  8
0
 10
426.3
 20
643.16
 11
426.3
 21
707.6
  0
LINE
  8
0
 10
426.3
 20
707.6
 11
524.8
 21
707.6
  0
LINE
  8
0
 10
524.8
 20
707.6
 11
524.8
 21
643.16
  0
LINE
  8
0
 10
524.8
 20
643.16
 11
426.3
 21
643.16
  0
LINE
  8
0
 10
326
 20
643.16
 11
326
 21
707.6
  0
LINE
  8
0
 10
326
 20
707.6
 11
424.5
 21
707.6
  0
LINE
  8
0
 10
424.5
 20
707.6
 11
424.5
 21
643.16
  0
LINE
  8
0
 10
424.5
 20
643.16
 11
326
 21
643.16
  0
LINE
  8
0
 10
326
 20
620.36
 11
326
 21
641.36
  0
LINE
  8
0
 10
326
 20
641.36
 11
356.002
 21
641.36
  0
LINE
  8
0
 10
356.002
 20
641.36
 11
356
 21
641.345
  0
LINE
  8
0
 10
356
 20
641.345
 11
356.106
 21
640.569
  0
LINE
  8
0
 10
356.106
 20
640.569
 11
356.409
 21
639.847
  0
LINE
  8
0
 10
356.409
 20
639.847
 11
356.889
 21
639.228
  0
LINE
  8
0
 10
356.889
 20
639.228
 11
357.513
 21
638.755
  0
LINE
  8
0
 10
357.513
 20
638.755
 11
358.238
 21
638.458
  0
LINE
  8
0
 10
358.238
 20
638.458
 11
359.015
 21
638.36
  0
LINE
  8
0
 10
359.015
 20
638.36
 11
363.269
 21
638.372
  0
LINE
  8
0
 10
363.269
 20
638.372
 11
364.033
 21
638.544
  0
LINE
  8
0
 10
364.033
 20
638.544
 11
364.727
 21
638.907
  0
LINE
  8
0
 10
364.727
 20
638.907
 11
365.303
 21
639.438
  0
LINE
  8
0
 10
365.303
 20
639.438
 11
365.722
 21
640.099
  0
LINE
  8
0
 10
365.722
 20
640.099
 11
365.956
 21
640.847
  0
LINE
  8
0
 10
365.956
 20
640.847
 11
365.977
 21
641.36
  0
LINE
  8
0
 10
365.977
 20
641.36
 11
459.025
 21
641.36
  0
LINE
  8
0
 10
459.025
 20
641.36
 11
459.023
 21
641.345
  0
LINE
  8
0
 10
459.023
 20
641.345
 11
459.129
 21
640.569
  0
LINE
  8
0
 10
459.129
 20
640.569
 11
459.432
 21
639.847
  0
LINE
  8
0
 10
459.432
 20
639.847
 11
459.912
 21
639.228
  0
LINE
  8
0
 10
459.912
 20
639.228
 11
460.536
 21
638.755
  0
LINE
  8
0
 10
460.536
 20
638.755
 11
461.261
 21
638.458
  0
LINE
  8
0
 10
461.261
 20
638.458
 11
462.038
 21
638.36
  0
LINE
  8
0
 10
462.038
 20
638.36
 11
466.292
 21
638.372
  0
LINE
  8
0
 10
466.292
 20
638.372
 11
467.057
 21
638.544
  0
LINE
  8
0
 10
467.057
 20
638.544
 11
467.75
 21
638.907
  0
LINE
  8
0
 10
467.75
 20
638.907
 11
468.326
 21
639.438
  0
LINE
  8
0
 10
468.326
 20
639.438
 11
468.745
 21
640.099
  0
LINE
  8
0
 10
468.745
 20
640.099
 11
468.979
 21
640.847
  0
LINE
  8
0
 10
468.979
 20
640.847
 11
469
 21
641.36
  0
LINE
  8
0
 10
469
 20
641.36
 11
499
 21
641.36
  0
LINE
  8
0
 10
499
 20
641.36
 11
499
 21
620.36
  0
LINE
  8
0
 10
499
 20
620.36
 11
326
 21
620.36
  0
LINE
  8
0
 10
326
 20
597.56
 11
326
 21
618.56
  0
LINE
  8
0
 10
326
 20
618.56
 11
472.307
 21
618.56
  0
LINE
  8
0
 10
472.307
 20
618.56
 11
472.307
 21
597.56
  0
LINE
  8
0
 10
472.307
 20
597.56
 11
326
 21
597.56
  0
LINE
  8
0
 10
474.107
 20
597.56
 11
474.107
 21
618.56
  0
LINE
  8
0
 10
474.107
 20
618.56
 11
552.342
 21
618.56
  0
LINE
  8
0
 10
552.342
 20
618.56
 11
552.342
 21
597.56
  0
LINE
  8
0
 10
552.342
 20
597.56
 11
474.107
 21
597.56
  0
LINE
  8
0
 10
575
 20
512.28
 11
325
 21
512.28
  0
LINE
  8
0
 10
325
 20
512.28
 11
325
 21
387.28
  0
LINE
  8
0
 10
325
 20
387.28
 11
575
 21
387.28
  0
LINE
  8
0
 10
575
 20
387.28
 11
575
 21
512.28
  0
LINE
  8
0
 10
427.8
 20
446.84
 11
427.8
 21
511.28
  0
LINE
  8
0
 10
427.8
 20
511.28
 11
487.8
 21
511.28
  0
LINE
  8
0
 10
487.8
 20
511.28
 11
487.8
 21
446.84
  0
LINE
  8
0
 10
487.8
 20
446.84
 11
427.8
 21
446.84
  0
LINE
  8
0
 10
489.6
 20
464.28
 11
489.6
 21
511.28
  0
LINE
  8
0
 10
489.6
 20
511.28
 11
540.6
 21
511.28
  0
LINE
  8
0
 10
540.6
 20
511.28
 11
540.6
 21
464.28
  0
LINE
  8
0
 10
540.6
 20
464.28
 11
489.6
 21
464.28
  0
LINE
  8
0
 10
326
 20
446.84
 11
326
 21
511.28
  0
LINE
  8
0
 10
326
 20
511.28
 11
426
 21
511.28
  0
LINE
  8
0
 10
426
 20
511.28
 11
426
 21
446.84
  0
LINE
  8
0
 10
426
 20
446.84
 11
326
 21
446.84
  0
LINE
  8
0
 10
502.6
 20
400.877
 11
502.6
 21
447.877
  0
LINE
  8
0
 10
502.6
 20
447.877
 11
553.6
 21
447.877
  0
LINE
  8
0
 10
553.6
 20
447.877
 11
553.6
 21
400.877
  0
LINE
  8
0
 10
553.6
 20
400.877
 11
502.6
 21
400.877
  0
LINE
  8
0
 10
414.3
 20
400.877
 11
414.3
 21
445.04
  0
LINE
  8
0
 10
414.3
 20
445.04
 11
500.8
 21
445.04
  0
LINE
  8
0
 10
500.8
 20
445.04
 11
500.8
 21
400.877
  0
LINE
  8
0
 10
500.8
 20
400.877
 11
414.3
 21
400.877
  0
LINE
  8
0
 10
458.068
 20
438.108
 11
458.55
 21
438.308
  0
LINE
  8
0
 10
458.55
 20
438.308
 11
458.964
 21
438.626
  0
LINE
  8
0
 10
458.964
 20
438.626
 11
459.282
 21
439.04
  0
LINE
  8
0
 10
459.282
 20
439.04
 11
459.482
 21
439.522
  0
LINE
  8
0
 10
459.482
 20
439.522
 11
459.55
 21
440.04
  0
LINE
  8
0
 10
459.55
 20
440.04
 11
459.482
 21
440.558
  0
LINE
  8
0
 10
459.482
 20
440.558
 11
459.282
 21
441.04
  0
LINE
  8
0
 10
459.282
 20
441.04
 11
458.964
 21
441.454
  0
LINE
  8
0
 10
458.964
 20
441.454
 11
458.55
 21
441.772
  0
LINE
  8
0
 10
458.55
 20
441.772
 11
458.068
 21
441.972
  0
LINE
  8
0
 10
458.068
 20
441.972
 11
457.55
 21
442.04
  0
LINE
  8
0
 10
457.55
 20
442.04
 11
457.032
 21
441.972
  0
LINE
  8
0
 10
457.032
 20
441.972
 11
456.55
 21
441.772
  0
LINE
  8
0
 10
456.55
 20
441.772
 11
456.136
 21
441.454
  0
LINE
  8
0
 10
456.136
 20
441.454
 11
455.818
 21
441.04
  0
LINE
  8
0
 10
455.818
 20
441.04
 11
455.618
 21
440.558
  0
LINE
  8
0
 10
455.618
 20
440.558
 11
455.55
 21
440.04
  0
LINE
  8
0
 10
455.55
 20
440.04
 11
455.618
 21
439.522
  0
LINE
  8
0
 10
455.618
 20
439.522
 11
455.818
 21
439.04
  0
LINE
  8
0
 10
455.818
 20
439.04
 11
456.136
 21
438.626
  0
LINE
  8
0
 10
456.136
 20
438.626
 11
456.55
 21
438.308
  0
LINE
  8
0
 10
456.55
 20
438.308
 11
457.032
 21
438.108
  0
LINE
  8
0
 10
457.032
 20
438.108
 11
457.55
 21
438.04
  0
LINE
  8
0
 10
457.55
 20
438.04
 11
458.068
 21
438.108
  0
LINE
  8
0
 10
326
 20
400.877
 11
326
 21
445.04
  0
LINE
  8
0
 10
326
 20
445.04
 11
412.5
 21
445.04
  0
LINE
  8
0
 10
412.5
 20
445.04
 11
412.5
 21
400.877
  0
LINE
  8
0
 10
412.5
 20
400.877
 11
326
 21
400.877
  0
LINE
  8
0
 10
369.767
 20
438.108
 11
370.25
 21
438.308
  0
LINE
  8
0
 10
370.25
 20
438.308
 11
370.664
 21
438.626
  0
LINE
  8
0
 10
370.664
 20
438.626
 11
370.982
 21
439.04
  0
LINE
  8
0
 10
370.982
 20
439.04
 11
371.182
 21
439.522
  0
LINE
  8
0
 10
371.182
 20
439.522
 11
371.25
 21
440.04
  0
LINE
  8
0
 10
371.25
 20
440.04
 11
371.182
 21
440.558
  0
LINE
  8
0
 10
371.182
 20
440.558
 11
370.982
 21
441.04
  0
LINE
  8
0
 10
370.982
 20
441.04
 11
370.664
 21
441.454
  0
LINE
  8
0
 10
370.664
 20
441.454
 11
370.25
 21
441.772
  0
LINE
  8
0
 10
370.25
 20
441.772
 11
369.767
 21
441.972
  0
LINE
  8
0
 10
369.767
 20
441.972
 11
369.25
 21
442.04
  0
LINE
  8
0
 10
369.25
 20
442.04
 11
368.732
 21
441.972
  0
LINE
  8
0
 10
368.732
 20
441.972
 11
368.25
 21
441.772
  0
LINE
  8
0
 10
368.25
 20
441.772
 11
367.836
 21
441.454
  0
LINE
  8
0
 10
367.836
 20
441.454
 11
367.518
 21
441.04
  0
LINE
  8
0
 10
367.518
 20
441.04
 11
367.318
 21
440.558
  0
LINE
  8
0
 10
367.318
 20
440.558
 11
367.25
 21
440.04
  0
LINE
  8
0
 10
367.25
 20
440.04
 11
367.318
 21
439.522
  0
LINE
  8
0
 10
367.318
 20
439.522
 11
367.518
 21
439.04
  0
LINE
  8
0
 10
367.518
 20
439.04
 11
367.836
 21
438.626
  0
LINE
  8
0
 10
367.836
 20
438.626
 11
368.25
 21
438.308
  0
LINE
  8
0
 10
368.25
 20
438.308
 11
368.732
 21
438.108
  0
LINE
  8
0
 10
368.732
 20
438.108
 11
369.25
 21
438.04
  0
LINE
  8
0
 10
369.25
 20
438.04
 11
369.767
 21
438.108
  0
LINE
  8
0
 10
250
 20
512.28
 11
-9.15527e-05
 21
512.28
  0
LINE
  8
0
 10
-9.15527e-05
 20
512.28
 11
-9.15527e-05
 21
387.28
  0
LINE
  8
0
 10
-9.15527e-05
 20
387.28
 11
250
 21
387.28
  0
LINE
  8
0
 10
250
 20
387.28
 11
250
 21
512.28
  0
LINE
  8
0
 10
94.7998
 20
437.28
 11
94.7998
 21
511.28
  0
LINE
  8
0
 10
94.7998
 20
511.28
 11
186.8
 21
511.28
  0
LINE
  8
0
 10
186.8
 20
511.28
 11
186.8
 21
437.28
  0
LINE
  8
0
 10
186.8
 20
437.28
 11
94.7998
 21
437.28
  0
LINE
  8
0
 10
177.244
 20
500.33
 11
177.734
 21
500.511
  0
LINE
  8
0
 10
177.734
 20
500.511
 11
178.16
 21
500.813
  0
LINE
  8
0
 10
178.16
 20
500.813
 11
178.493
 21
501.215
  0
LINE
  8
0
 10
178.493
 20
501.215
 11
178.711
 21
501.69
  0
LINE
  8
0
 10
178.711
 20
501.69
 11
178.798
 21
502.204
  0
LINE
  8
0
 10
178.798
 20
502.204
 11
178.75
 21
502.724
  0
LINE
  8
0
 10
178.75
 20
502.724
 11
178.568
 21
503.214
  0
LINE
  8
0
 10
178.568
 20
503.214
 11
178.266
 21
503.64
  0
LINE
  8
0
 10
178.266
 20
503.64
 11
177.865
 21
503.973
  0
LINE
  8
0
 10
177.865
 20
503.973
 11
177.39
 21
504.191
  0
LINE
  8
0
 10
177.39
 20
504.191
 11
176.876
 21
504.279
  0
LINE
  8
0
 10
176.876
 20
504.279
 11
176.356
 21
504.23
  0
LINE
  8
0
 10
176.356
 20
504.23
 11
175.866
 21
504.049
  0
LINE
  8
0
 10
175.866
 20
504.049
 11
175.44
 21
503.747
  0
LINE
  8
0
 10
175.44
 20
503.747
 11
175.107
 21
503.345
  0
LINE
  8
0
 10
175.107
 20
503.345
 11
174.889
 21
502.87
  0
LINE
  8
0
 10
174.889
 20
502.87
 11
174.801
 21
502.356
  0
LINE
  8
0
 10
174.801
 20
502.356
 11
174.85
 21
501.836
  0
LINE
  8
0
 10
174.85
 20
501.836
 11
175.031
 21
501.346
  0
LINE
  8
0
 10
175.031
 20
501.346
 11
175.333
 21
500.92
  0
LINE
  8
0
 10
175.333
 20
500.92
 11
175.735
 21
500.587
  0
LINE
  8
0
 10
175.735
 20
500.587
 11
176.209
 21
500.369
  0
LINE
  8
0
 10
176.209
 20
500.369
 11
176.724
 21
500.281
  0
LINE
  8
0
 10
176.724
 20
500.281
 11
177.244
 21
500.33
  0
LINE
  8
0
 10
105.191
 20
500.319
 11
105.686
 21
500.487
  0
LINE
  8
0
 10
105.686
 20
500.487
 11
106.12
 21
500.777
  0
LINE
  8
0
 10
106.12
 20
500.777
 11
106.464
 21
501.17
  0
LINE
  8
0
 10
106.464
 20
501.17
 11
106.694
 21
501.638
  0
LINE
  8
0
 10
106.694
 20
501.638
 11
106.796
 21
502.151
  0
LINE
  8
0
 10
106.796
 20
502.151
 11
106.761
 21
502.672
  0
LINE
  8
0
 10
106.761
 20
502.672
 11
106.593
 21
503.166
  0
LINE
  8
0
 10
106.593
 20
503.166
 11
106.303
 21
503.6
  0
LINE
  8
0
 10
106.303
 20
503.6
 11
105.91
 21
503.944
  0
LINE
  8
0
 10
105.91
 20
503.944
 11
105.441
 21
504.174
  0
LINE
  8
0
 10
105.441
 20
504.174
 11
104.929
 21
504.276
  0
LINE
  8
0
 10
104.929
 20
504.276
 11
104.408
 21
504.241
  0
LINE
  8
0
 10
104.408
 20
504.241
 11
103.914
 21
504.073
  0
LINE
  8
0
 10
103.914
 20
504.073
 11
103.48
 21
503.783
  0
LINE
  8
0
 10
103.48
 20
503.783
 11
103.136
 21
503.39
  0
LINE
  8
0
 10
103.136
 20
503.39
 11
102.906
 21
502.922
  0
LINE
  8
0
 10
102.906
 20
502.922
 11
102.804
 21
502.409
  0
LINE
  8
0
 10
102.804
 20
502.409
 11
102.839
 21
501.888
  0
LINE
  8
0
 10
102.839
 20
501.888
 11
103.007
 21
501.394
  0
LINE
  8
0
 10
103.007
 20
501.394
 11
103.297
 21
500.96
  0
LINE
  8
0
 10
103.297
 20
500.96
 11
103.69
 21
500.616
  0
LINE
  8
0
 10
103.69
 20
500.616
 11
104.158
 21
500.386
  0
LINE
  8
0
 10
104.158
 20
500.386
 11
104.67
 21
500.284
  0
LINE
  8
0
 10
104.67
 20
500.284
 11
105.191
 21
500.319
  0
LINE
  8
0
 10
188.6
 20
420.28
 11
188.6
 21
511.28
  0
LINE
  8
0
 10
188.6
 20
511.28
 11
239.6
 21
511.28
  0
LINE
  8
0
 10
239.6
 20
511.28
 11
239.6
 21
420.28
  0
LINE
  8
0
 10
239.6
 20
420.28
 11
188.6
 21
420.28
  0
LINE
  8
0
 10
0.999893
 20
437.28
 11
0.999893
 21
511.28
  0
LINE
  8
0
 10
0.999893
 20
511.28
 11
92.9999
 21
511.28
  0
LINE
  8
0
 10
92.9999
 20
511.28
 11
92.9999
 21
437.28
  0
LINE
  8
0
 10
92.9999
 20
437.28
 11
0.999893
 21
437.28
  0
LINE
  8
0
 10
83.444
 20
500.33
 11
83.9336
 21
500.511
  0
LINE
  8
0
 10
83.9336
 20
500.511
 11
84.3595
 21
500.813
  0
LINE
  8
0
 10
84.3595
 20
500.813
 11
84.6928
 21
501.215
  0
LINE
  8
0
 10
84.6928
 20
501.215
 11
84.9107
 21
501.69
  0
LINE
  8
0
 10
84.9107
 20
501.69
 11
84.9984
 21
502.204
  0
LINE
  8
0
 10
84.9984
 20
502.204
 11
84.9498
 21
502.724
  0
LINE
  8
0
 10
84.9498
 20
502.724
 11
84.7684
 21
503.214
  0
LINE
  8
0
 10
84.7684
 20
503.214
 11
84.4666
 21
503.64
  0
LINE
  8
0
 10
84.4666
 20
503.64
 11
84.0646
 21
503.973
  0
LINE
  8
0
 10
84.0646
 20
503.973
 11
83.5902
 21
504.191
  0
LINE
  8
0
 10
83.5902
 20
504.191
 11
83.0755
 21
504.279
  0
LINE
  8
0
 10
83.0755
 20
504.279
 11
82.5557
 21
504.23
  0
LINE
  8
0
 10
82.5557
 20
504.23
 11
82.0661
 21
504.049
  0
LINE
  8
0
 10
82.0661
 20
504.049
 11
81.6402
 21
503.747
  0
LINE
  8
0
 10
81.6402
 20
503.747
 11
81.3069
 21
503.345
  0
LINE
  8
0
 10
81.3069
 20
503.345
 11
81.089
 21
502.87
  0
LINE
  8
0
 10
81.089
 20
502.87
 11
81.0012
 21
502.356
  0
LINE
  8
0
 10
81.0012
 20
502.356
 11
81.0498
 21
501.836
  0
LINE
  8
0
 10
81.0498
 20
501.836
 11
81.2312
 21
501.346
  0
LINE
  8
0
 10
81.2312
 20
501.346
 11
81.5331
 21
500.92
  0
LINE
  8
0
 10
81.5331
 20
500.92
 11
81.9351
 21
500.587
  0
LINE
  8
0
 10
81.9351
 20
500.587
 11
82.4094
 21
500.369
  0
LINE
  8
0
 10
82.4094
 20
500.369
 11
82.9242
 21
500.281
  0
LINE
  8
0
 10
82.9242
 20
500.281
 11
83.444
 21
500.33
  0
LINE
  8
0
 10
11.3914
 20
500.319
 11
11.8856
 21
500.487
  0
LINE
  8
0
 10
11.8856
 20
500.487
 11
12.3196
 21
500.777
  0
LINE
  8
0
 10
12.3196
 20
500.777
 11
12.6636
 21
501.17
  0
LINE
  8
0
 10
12.6636
 20
501.17
 11
12.8942
 21
501.638
  0
LINE
  8
0
 10
12.8942
 20
501.638
 11
12.9956
 21
502.151
  0
LINE
  8
0
 10
12.9956
 20
502.151
 11
12.9611
 21
502.672
  0
LINE
  8
0
 10
12.9611
 20
502.672
 11
12.793
 21
503.166
  0
LINE
  8
0
 10
12.793
 20
503.166
 11
12.5026
 21
503.6
  0
LINE
  8
0
 10
12.5026
 20
503.6
 11
12.1099
 21
503.944
  0
LINE
  8
0
 10
12.1099
 20
503.944
 11
11.6414
 21
504.174
  0
LINE
  8
0
 10
11.6414
 20
504.174
 11
11.1293
 21
504.276
  0
LINE
  8
0
 10
11.1293
 20
504.276
 11
10.6083
 21
504.241
  0
LINE
  8
0
 10
10.6083
 20
504.241
 11
10.114
 21
504.073
  0
LINE
  8
0
 10
10.114
 20
504.073
 11
9.68007
 21
503.783
  0
LINE
  8
0
 10
9.68007
 20
503.783
 11
9.33607
 21
503.39
  0
LINE
  8
0
 10
9.33607
 20
503.39
 11
9.10548
 21
502.922
  0
LINE
  8
0
 10
9.10548
 20
502.922
 11
9.00404
 21
502.409
  0
LINE
  8
0
 10
9.00404
 20
502.409
 11
9.03859
 21
501.888
  0
LINE
  8
0
 10
9.03859
 20
501.888
 11
9.20668
 21
501.394
  0
LINE
  8
0
 10
9.20668
 20
501.394
 11
9.49709
 21
500.96
  0
LINE
  8
0
 10
9.49709
 20
500.96
 11
9.88979
 21
500.616
  0
LINE
  8
0
 10
9.88979
 20
500.616
 11
10.3583
 21
500.386
  0
LINE
  8
0
 10
10.3583
 20
500.386
 11
10.8704
 21
500.284
  0
LINE
  8
0
 10
10.8704
 20
500.284
 11
11.3914
 21
500.319
  0
LINE
  8
0
 10
0.999893
 20
389.18
 11
0.999893
 21
435.48
  0
LINE
  8
0
 10
0.999893
 20
435.48
 11
99.4999
 21
435.48
  0
LINE
  8
0
 10
99.4999
 20
435.48
 11
99.4999
 21
389.18
  0
LINE
  8
0
 10
99.4999
 20
389.18
 11
0.999893
 21
389.18
  0
LINE
  8
0
 10
101.3
 20
389.18
 11
101.3
 21
435.48
  0
LINE
  8
0
 10
101.3
 20
435.48
 11
161.3
 21
435.48
  0
LINE
  8
0
 10
161.3
 20
435.48
 11
161.3
 21
389.18
  0
LINE
  8
0
 10
161.3
 20
389.18
 11
101.3
 21
389.18
  0
LINE
  8
0
 10
163.1
 20
409.48
 11
163.1
 21
435.48
  0
LINE
  8
0
 10
163.1
 20
435.48
 11
184.1
 21
435.48
  0
LINE
  8
0
 10
184.1
 20
435.48
 11
184.1
 21
409.48
  0
LINE
  8
0
 10
184.1
 20
409.48
 11
163.1
 21
409.48
  0
LINE
  8
0
 10
575
 20
322
 11
325
 21
322
  0
LINE
  8
0
 10
325
 20
322
 11
325
 21
197
  0
LINE
  8
0
 10
325
 20
197
 11
575
 21
197
  0
LINE
  8
0
 10
575
 20
197
 11
575
 21
322
  0
LINE
  8
0
 10
250
 20
322
 11
-9.15527e-05
 21
322
  0
LINE
  8
0
 10
-9.15527e-05
 20
322
 11
-9.15527e-05
 21
197
  0
LINE
  8
0
 10
-9.15527e-05
 20
197
 11
250
 21
197
  0
LINE
  8
0
 10
250
 20
197
 11
250
 21
322
  0
LINE
  8
0
 10
0.999893
 20
221
 11
0.999893
 21
321
  0
LINE
  8
0
 10
0.999893
 20
321
 11
174
 21
321
  0
LINE
  8
0
 10
174
 20
321
 11
174
 21
221
  0
LINE
  8
0
 10
174
 20
221
 11
0.999893
 21
221
  0
LINE
  8
0
 10
175.8
 20
230
 11
175.8
 21
321
  0
LINE
  8
0
 10
175.8
 20
321
 11
226.8
 21
321
  0
LINE
  8
0
 10
226.8
 20
321
 11
226.8
 21
230
  0
LINE
  8
0
 10
226.8
 20
230
 11
175.8
 21
230
  0
LINE
  8
0
 10
228.6
 20
276.837
 11
228.6
 21
321
  0
LINE
  8
0
 10
228.6
 20
321
 11
243.6
 21
321
  0
LINE
  8
0
 10
243.6
 20
321
 11
243.6
 21
276.837
  0
LINE
  8
0
 10
243.6
 20
276.837
 11
228.6
 21
276.837
  0
LINE
  8
0
 10
228.6
 20
230.874
 11
228.6
 21
275.037
  0
LINE
  8
0
 10
228.6
 20
275.037
 11
243.6
 21
275.037
  0
LINE
  8
0
 10
243.6
 20
275.037
 11
243.6
 21
230.874
  0
LINE
  8
0
 10
243.6
 20
230.874
 11
228.6
 21
230.874
  0
LINE
  8
0
 10
101.8
 20
202.2
 11
101.8
 21
219.2
  0
LINE
  8
0
 10
101.8
 20
219.2
 11
200.8
 21
219.2
  0
LINE
  8
0
 10
200.8
 20
219.2
 11
200.8
 21
202.2
  0
LINE
  8
0
 10
200.8
 20
202.2
 11
101.8
 21
202.2
  0
LINE
  8
0
 10
0.999893
 20
202.2
 11
0.999893
 21
219.2
  0
LINE
  8
0
 10
0.999893
 20
219.2
 11
99.9999
 21
219.2
  0
LINE
  8
0
 10
99.9999
 20
219.2
 11
99.9999
 21
202.2
  0
LINE
  8
0
 10
99.9999
 20
202.2
 11
0.999893
 21
202.2
  0
LINE
  8
0
 10
575
 20
125
 11
325
 21
125
  0
LINE
  8
0
 10
325
 20
125
 11
325
 21
1.52588e-05
  0
LINE
  8
0
 10
325
 20
1.52588e-05
 11
575
 21
1.52588e-05
  0
LINE
  8
0
 10
575
 20
1.52588e-05
 11
575
 21
125
  0
LINE
  8
0
 10
326
 20
103
 11
326
 21
124
  0
LINE
  8
0
 10
326
 20
124
 11
472.307
 21
124
  0
LINE
  8
0
 10
472.307
 20
124
 11
472.307
 21
103
  0
LINE
  8
0
 10
472.307
 20
103
 11
326
 21
103
  0
LINE
  8
0
 10
474.107
 20
103
 11
485.357
 21
122.486
  0
LINE
  8
0
 10
485.357
 20
122.486
 11
507.857
 21
122.486
  0
LINE
  8
0
 10
507.857
 20
122.486
 11
519.107
 21
103
  0
LINE
  8
0
 10
519.107
 20
103
 11
474.107
 21
103
  0
LINE
  8
0
 10
521.107
 20
103
 11
509.857
 21
122.486
  0
LINE
  8
0
 10
509.857
 20
122.486
 11
554.857
 21
122.486
  0
LINE
  8
0
 10
554.857
 20
122.486
 11
543.607
 21
103
  0
LINE
  8
0
 10
543.607
 20
103
 11
521.107
 21
103
  0
LINE
  8
0
 10
398.9
 20
39.2
 11
398.9
 21
101.2
  0
LINE
  8
0
 10
398.9
 20
101.2
 11
553.9
 21
101.2
  0
LINE
  8
0
 10
553.9
 20
101.2
 11
553.9
 21
39.2
  0
LINE
  8
0
 10
553.9
 20
39.2
 11
398.9
 21
39.2
  0
LINE
  8
0
 10
374.6
 20
77.2
 11
374.6
 21
101.2
  0
LINE
  8
0
 10
374.6
 20
101.2
 11
397.1
 21
101.2
  0
LINE
  8
0
 10
397.1
 20
101.2
 11
397.1
 21
77.2
  0
LINE
  8
0
 10
397.1
 20
77.2
 11
374.6
 21
77.2
  0
LINE
  8
0
 10
338.241
 20
55.5186
 11
326.991
 21
75.0042
  0
LINE
  8
0
 10
326.991
 20
75.0042
 11
338.241
 21
94.4898
  0
LINE
  8
0
 10
338.241
 20
94.4898
 11
360.741
 21
94.4898
  0
LINE
  8
0
 10
360.741
 20
94.4898
 11
371.991
 21
75.0042
  0
LINE
  8
0
 10
371.991
 20
75.0042
 11
360.741
 21
55.5186
  0
LINE
  8
0
 10
360.741
 20
55.5186
 11
338.241
 21
55.5186
  0
LINE
  8
0
 10
374.6
 20
51.4
 11
374.6
 21
75.4
  0
LINE
  8
0
 10
374.6
 20
75.4
 11
397.1
 21
75.4
  0
LINE
  8
0
 10
397.1
 20
75.4
 11
397.1
 21
51.4
  0
LINE
  8
0
 10
397.1
 20
51.4
 11
374.6
 21
51.4
  0
LINE
  8
0
 10
350.3
 20
27.1544
 11
350.3
 21
51.1544
  0
LINE
  8
0
 10
350.3
 20
51.1544
 11
372.8
 21
51.1544
  0
LINE
  8
0
 10
372.8
 20
51.1544
 11
372.8
 21
27.1544
  0
LINE
  8
0
 10
372.8
 20
27.1544
 11
350.3
 21
27.1544
  0
LINE
  8
0
 10
364.038
 20
32.6116
 11
365.647
 21
33.4786
  0
LINE
  8
0
 10
365.647
 20
33.4786
 11
366.976
 21
34.7324
  0
LINE
  8
0
 10
366.976
 20
34.7324
 11
367.936
 21
36.2876
  0
LINE
  8
0
 10
367.936
 20
36.2876
 11
368.46
 21
38.038
  0
LINE
  8
0
 10
368.46
 20
38.038
 11
368.514
 21
39.8646
  0
LINE
  8
0
 10
368.514
 20
39.8646
 11
368.093
 21
41.6428
  0
LINE
  8
0
 10
368.093
 20
41.6428
 11
367.226
 21
43.2514
  0
LINE
  8
0
 10
367.226
 20
43.2514
 11
365.972
 21
44.5808
  0
LINE
  8
0
 10
365.972
 20
44.5808
 11
364.417
 21
45.5404
  0
LINE
  8
0
 10
364.417
 20
45.5404
 11
362.666
 21
46.0648
  0
LINE
  8
0
 10
362.666
 20
46.0648
 11
360.84
 21
46.1183
  0
LINE
  8
0
 10
360.84
 20
46.1183
 11
359.061
 21
45.6972
  0
LINE
  8
0
 10
359.061
 20
45.6972
 11
357.453
 21
44.8302
  0
LINE
  8
0
 10
357.453
 20
44.8302
 11
356.123
 21
43.5764
  0
LINE
  8
0
 10
356.123
 20
43.5764
 11
355.164
 21
42.0213
  0
LINE
  8
0
 10
355.164
 20
42.0213
 11
354.639
 21
40.2708
  0
LINE
  8
0
 10
354.639
 20
40.2708
 11
354.586
 21
38.4442
  0
LINE
  8
0
 10
354.586
 20
38.4442
 11
355.007
 21
36.666
  0
LINE
  8
0
 10
355.007
 20
36.666
 11
355.874
 21
35.0574
  0
LINE
  8
0
 10
355.874
 20
35.0574
 11
357.128
 21
33.728
  0
LINE
  8
0
 10
357.128
 20
33.728
 11
358.683
 21
32.7684
  0
LINE
  8
0
 10
358.683
 20
32.7684
 11
360.433
 21
32.244
  0
LINE
  8
0
 10
360.433
 20
32.244
 11
362.26
 21
32.1905
  0
LINE
  8
0
 10
362.26
 20
32.1905
 11
364.038
 21
32.6116
  0
LINE
  8
0
 10
326
 20
27.1544
 11
326
 21
51.1544
  0
LINE
  8
0
 10
326
 20
51.1544
 11
348.5
 21
51.1544
  0
LINE
  8
0
 10
348.5
 20
51.1544
 11
348.5
 21
27.1544
  0
LINE
  8
0
 10
348.5
 20
27.1544
 11
326
 21
27.1544
  0
LINE
  8
0
 10
339.738
 20
32.6116
 11
341.347
 21
33.4786
  0
LINE
  8
0
 10
341.347
 20
33.4786
 11
342.676
 21
34.7324
  0
LINE
  8
0
 10
342.676
 20
34.7324
 11
343.636
 21
36.2876
  0
LINE
  8
0
 10
343.636
 20
36.2876
 11
344.16
 21
38.038
  0
LINE
  8
0
 10
344.16
 20
38.038
 11
344.214
 21
39.8646
  0
LINE
  8
0
 10
344.214
 20
39.8646
 11
343.793
 21
41.6428
  0
LINE
  8
0
 10
343.793
 20
41.6428
 11
342.926
 21
43.2514
  0
LINE
  8
0
 10
342.926
 20
43.2514
 11
341.672
 21
44.5808
  0
LINE
  8
0
 10
341.672
 20
44.5808
 11
340.117
 21
45.5404
  0
LINE
  8
0
 10
340.117
 20
45.5404
 11
338.366
 21
46.0648
  0
LINE
  8
0
 10
338.366
 20
46.0648
 11
336.54
 21
46.1183
  0
LINE
  8
0
 10
336.54
 20
46.1183
 11
334.761
 21
45.6972
  0
LINE
  8
0
 10
334.761
 20
45.6972
 11
333.153
 21
44.8302
  0
LINE
  8
0
 10
333.153
 20
44.8302
 11
331.823
 21
43.5764
  0
LINE
  8
0
 10
331.823
 20
43.5764
 11
330.864
 21
42.0213
  0
LINE
  8
0
 10
330.864
 20
42.0213
 11
330.339
 21
40.2708
  0
LINE
  8
0
 10
330.339
 20
40.2708
 11
330.286
 21
38.4442
  0
LINE
  8
0
 10
330.286
 20
38.4442
 11
330.707
 21
36.666
  0
LINE
  8
0
 10
330.707
 20
36.666
 11
331.574
 21
35.0574
  0
LINE
  8
0
 10
331.574
 20
35.0574
 11
332.828
 21
33.728
  0
LINE
  8
0
 10
332.828
 20
33.728
 11
334.383
 21
32.7684
  0
LINE
  8
0
 10
334.383
 20
32.7684
 11
336.133
 21
32.244
  0
LINE
  8
0
 10
336.133
 20
32.244
 11
337.96
 21
32.1905
  0
LINE
  8
0
 10
337.96
 20
32.1905
 11
339.738
 21
32.6116
  0
LINE
  8
0
 10
350.3
 20
1.35442
 11
350.3
 21
25.3544
  0
LINE
  8
0
 10
350.3
 20
25.3544
 11
372.8
 21
25.3544
  0
LINE
  8
0
 10
372.8
 20
25.3544
 11
372.8
 21
1.35442
  0
LINE
  8
0
 10
372.8
 20
1.35442
 11
350.3
 21
1.35442
  0
LINE
  8
0
 10
326
 20
1.35442
 11
326
 21
25.3544
  0
LINE
  8
0
 10
326
 20
25.3544
 11
348.5
 21
25.3544
  0
LINE
  8
0
 10
348.5
 20
25.3544
 11
348.5
 21
1.35442
  0
LINE
  8
0
 10
348.5
 20
1.35442
 11
326
 21
1.35442
  0
LINE
  8
0
 10
250
 20
125
 11
-9.15527e-05
 21
125
  0
LINE
  8
0
 10
-9.15527e-05
 20
125
 11
-9.15527e-05
 21
1.52588e-05
  0
LINE
  8
0
 10
-9.15527e-05
 20
1.52588e-05
 11
250
 21
1.52588e-05
  0
LINE
  8
0
 10
250
 20
1.52588e-05
 11
250
 21
125
  0
LINE
  8
0
 10
208.556
 20
75.8
 11
197.306
 21
95.2856
  0
LINE
  8
0
 10
197.306
 20
95.2856
 11
208.556
 21
114.771
  0
LINE
  8
0
 10
208.556
 20
114.771
 11
231.056
 21
114.771
  0
LINE
  8
0
 10
231.056
 20
114.771
 11
242.306
 21
95.2856
  0
LINE
  8
0
 10
242.306
 20
95.2856
 11
231.056
 21
75.8
  0
LINE
  8
0
 10
231.056
 20
75.8
 11
208.556
 21
75.8
  0
LINE
  8
0
 10
1.99989
 20
82.2
 11
1.99989
 21
103.2
  0
LINE
  8
0
 10
1.99989
 20
103.2
 11
193.163
 21
103.2
  0
LINE
  8
0
 10
193.163
 20
103.2
 11
193.163
 21
82.2
  0
LINE
  8
0
 10
193.163
 20
82.2
 11
1.99989
 21
82.2
  0
LINE
  8
0
 10
1.99989
 20
1.40001
 11
1.99989
 21
28.4
  0
LINE
  8
0
 10
1.99989
 20
28.4
 11
41.3303
 21
80.4
  0
LINE
  8
0
 10
41.3303
 20
80.4
 11
153.832
 21
80.4
  0
LINE
  8
0
 10
153.832
 20
80.4
 11
193.163
 21
28.4
  0
LINE
  8
0
 10
193.163
 20
28.4
 11
193.163
 21
1.40001
  0
LINE
  8
0
 10
193.163
 20
1.40001
 11
1.99989
 21
1.40001
  0
LINE
  8
0
 10
175.755
 20
54.4
 11
175.755
 21
80.4
  0
LINE
  8
0
 10
175.755
 20
80.4
 11
196.755
 21
80.4
  0
LINE
  8
0
 10
196.755
 20
80.4
 11
196.755
 21
54.4
  0
LINE
  8
0
 10
196.755
 20
54.4
 11
175.755
 21
54.4
  0
LINE
  8
0
 10
222.855
 20
51
 11
222.855
 21
74
  0
LINE
  8
0
 10
222.855
 20
74
 11
245.355
 21
74
  0
LINE
  8
0
 10
245.355
 20
74
 11
245.355
 21
51
  0
LINE
  8
0
 10
245.355
 20
51
 11
222.855
 21
51
  0
LINE
  8
0
 10
236.593
 20
55.9572
 11
238.202
 21
56.8242
  0
LINE
  8
0
 10
238.202
 20
56.8242
 11
239.531
 21
58.078
  0
LINE
  8
0
 10
239.531
 20
58.078
 11
240.491
 21
59.6331
  0
LINE
  8
0
 10
240.491
 20
59.6331
 11
241.015
 21
61.3836
  0
LINE
  8
0
 10
241.015
 20
61.3836
 11
241.068
 21
63.2102
  0
LINE
  8
0
 10
241.068
 20
63.2102
 11
240.647
 21
64.9884
  0
LINE
  8
0
 10
240.647
 20
64.9884
 11
239.78
 21
66.597
  0
LINE
  8
0
 10
239.78
 20
66.597
 11
238.527
 21
67.9264
  0
LINE
  8
0
 10
238.527
 20
67.9264
 11
236.971
 21
68.886
  0
LINE
  8
0
 10
236.971
 20
68.886
 11
235.221
 21
69.4104
  0
LINE
  8
0
 10
235.221
 20
69.4104
 11
233.394
 21
69.4639
  0
LINE
  8
0
 10
233.394
 20
69.4639
 11
231.616
 21
69.0428
  0
LINE
  8
0
 10
231.616
 20
69.0428
 11
230.008
 21
68.1758
  0
LINE
  8
0
 10
230.008
 20
68.1758
 11
228.678
 21
66.922
  0
LINE
  8
0
 10
228.678
 20
66.922
 11
227.719
 21
65.3669
  0
LINE
  8
0
 10
227.719
 20
65.3669
 11
227.194
 21
63.6164
  0
LINE
  8
0
 10
227.194
 20
63.6164
 11
227.141
 21
61.7898
  0
LINE
  8
0
 10
227.141
 20
61.7898
 11
227.562
 21
60.0116
  0
LINE
  8
0
 10
227.562
 20
60.0116
 11
228.429
 21
58.403
  0
LINE
  8
0
 10
228.429
 20
58.403
 11
229.683
 21
57.0736
  0
LINE
  8
0
 10
229.683
 20
57.0736
 11
231.238
 21
56.114
  0
LINE
  8
0
 10
231.238
 20
56.114
 11
232.988
 21
55.5896
  0
LINE
  8
0
 10
232.988
 20
55.5896
 11
234.815
 21
55.5361
  0
LINE
  8
0
 10
234.815
 20
55.5361
 11
236.593
 21
55.9572
  0
LINE
  8
0
 10
198.555
 20
51
 11
198.555
 21
74
  0
LINE
  8
0
 10
198.555
 20
74
 11
221.055
 21
74
  0
LINE
  8
0
 10
221.055
 20
74
 11
221.055
 21
51
  0
LINE
  8
0
 10
221.055
 20
51
 11
198.555
 21
51
  0
LINE
  8
0
 10
212.293
 20
55.9572
 11
213.902
 21
56.8242
  0
LINE
  8
0
 10
213.902
 20
56.8242
 11
215.231
 21
58.078
  0
LINE
  8
0
 10
215.231
 20
58.078
 11
216.191
 21
59.6331
  0
LINE
  8
0
 10
216.191
 20
59.6331
 11
216.715
 21
61.3836
  0
LINE
  8
0
 10
216.715
 20
61.3836
 11
216.768
 21
63.2102
  0
LINE
  8
0
 10
216.768
 20
63.2102
 11
216.347
 21
64.9884
  0
LINE
  8
0
 10
216.347
 20
64.9884
 11
215.48
 21
66.597
  0
LINE
  8
0
 10
215.48
 20
66.597
 11
214.227
 21
67.9264
  0
LINE
  8
0
 10
214.227
 20
67.9264
 11
212.672
 21
68.886
  0
LINE
  8
0
 10
212.672
 20
68.886
 11
210.921
 21
69.4104
  0
LINE
  8
0
 10
210.921
 20
69.4104
 11
209.094
 21
69.4639
  0
LINE
  8
0
 10
209.094
 20
69.4639
 11
207.316
 21
69.0428
  0
LINE
  8
0
 10
207.316
 20
69.0428
 11
205.708
 21
68.1758
  0
LINE
  8
0
 10
205.708
 20
68.1758
 11
204.378
 21
66.922
  0
LINE
  8
0
 10
204.378
 20
66.922
 11
203.419
 21
65.3669
  0
LINE
  8
0
 10
203.419
 20
65.3669
 11
202.894
 21
63.6164
  0
LINE
  8
0
 10
202.894
 20
63.6164
 11
202.841
 21
61.7898
  0
LINE
  8
0
 10
202.841
 20
61.7898
 11
203.262
 21
60.0116
  0
LINE
  8
0
 10
203.262
 20
60.0116
 11
204.129
 21
58.403
  0
LINE
  8
0
 10
204.129
 20
58.403
 11
205.383
 21
57.0736
  0
LINE
  8
0
 10
205.383
 20
57.0736
 11
206.938
 21
56.114
  0
LINE
  8
0
 10
206.938
 20
56.114
 11
208.688
 21
55.5896
  0
LINE
  8
0
 10
208.688
 20
55.5896
 11
210.515
 21
55.5361
  0
LINE
  8
0
 10
210.515
 20
55.5361
 11
212.293
 21
55.9572
  0
LINE
  8
0
 10
194.963
 20
26.2
 11
194.963
 21
49.2
  0
LINE
  8
0
 10
194.963
 20
49.2
 11
217.463
 21
49.2
  0
LINE
  8
0
 10
217.463
 20
49.2
 11
217.463
 21
26.2
  0
LINE
  8
0
 10
217.463
 20
26.2
 11
194.963
 21
26.2
  0
LINE
  8
0
 10
219.263
 20
26.0716
 11
219.263
 21
49.0716
  0
LINE
  8
0
 10
219.263
 20
49.0716
 11
241.763
 21
49.0716
  0
LINE
  8
0
 10
241.763
 20
49.0716
 11
241.763
 21
26.0716
  0
LINE
  8
0
 10
241.763
 20
26.0716
 11
219.263
 21
26.0716
  0
LINE
  8
0
 10
194.963
 20
1.40001
 11
194.963
 21
24.4
  0
LINE
  8
0
 10
194.963
 20
24.4
 11
217.463
 21
24.4
  0
LINE
  8
0
 10
217.463
 20
24.4
 11
217.463
 21
1.40001
  0
LINE
  8
0
 10
217.463
 20
1.40001
 11
194.963
 21
1.40001
  0
LINE
  8
0
 10
219.263
 20
1.27165
 11
219.263
 21
24.2717
  0
LINE
  8
0
 10
219.263
 20
24.2717
 11
241.763
 21
24.2717
  0
LINE
  8
0
 10
241.763
 20
24.2717
 11
241.763
 21
1.27165
  0
LINE
  8
0
 10
241.763
 20
1.27165
 11
219.263
 21
1.27165
  0
ENDSEC
  0
SECTION
  2
OBJECTS
  0
DICTIONARY
  0
ENDSEC
  0
EOF
